<svg xmlns="http://www.w3.org/2000/svg" version="1.1" xmlns:xlink="http://www.w3.org/1999/xlink" xmlns:svgjs="http://svgjs.dev/svgjs" width="1920" height="1080" preserveAspectRatio="none" viewBox="0 0 1920 1080"><g mask="url(&quot;#SvgjsMask1000&quot;)" fill="none"><rect width="1920" height="1080" x="0" y="0" fill="rgba(255, 255, 255, 1)"></rect><path d="M-187.68 43.67 a231.35 231.35 0 1 0 462.7 0 a231.35 231.35 0 1 0 -462.7 0z" fill="rgba(76, 202, 240, 0.9)" class="triangle-float1"></path><path d="M130.245,290.326C185.87,286.651,233.743,254.37,261.574,206.068C289.359,157.846,294.679,99.538,268.465,50.444C240.679,-1.594,189.213,-41.561,130.245,-39.889C73.486,-38.279,34.972,9.709,4.969,57.917C-27.586,110.225,-64.264,171.432,-35.03,225.666C-4.945,281.479,66.978,294.506,130.245,290.326" fill="rgba(76, 202, 240, 0.9)" class="triangle-float2"></path><path d="M-246.53 102.52 a349.05 349.05 0 1 0 698.1 0 a349.05 349.05 0 1 0 -698.1 0z" fill="rgba(76, 202, 240, 0.9)" class="triangle-float2"></path><path d="M1575.32 -15.32 a113.36 113.36 0 1 0 226.72 0 a113.36 113.36 0 1 0 -226.72 0z" fill="rgba(76, 202, 240, 0.9)" class="triangle-float2"></path><path d="M1816.844,259.685C1867.241,259.757,1905.286,221.974,1933.298,180.079C1966.136,130.965,2002.189,73.846,1976.752,20.521C1948.927,-37.81,1881.226,-69.683,1816.844,-64.052C1759.748,-59.058,1723.616,-6.951,1699.012,44.813C1678.315,88.357,1677.781,137.475,1700.963,179.748C1725.146,223.847,1766.549,259.613,1816.844,259.685" fill="rgba(76, 202, 240, 0.9)" class="triangle-float2"></path><path d="M1955.854,541.565C2052.709,536.957,2120.833,459.049,2170.943,376.036C2223.416,289.108,2271.774,186.624,2224.283,96.877C2174.64,3.063,2061.806,-36.724,1955.854,-30.43C1860.106,-24.742,1786.36,43.247,1737.514,125.795C1687.512,210.296,1656.486,311.409,1702.137,398.338C1750.532,490.493,1851.882,546.511,1955.854,541.565" fill="rgba(76, 202, 240, 0.9)" class="triangle-float2"></path><path d="M-175.59 895.59 a207.18 207.18 0 1 0 414.36 0 a207.18 207.18 0 1 0 -414.36 0z" fill="rgba(76, 202, 240, 0.9)" class="triangle-float3"></path><path d="M162.45,1213.64C233.188,1213.987,302.931,1189.088,341.961,1130.091C385.389,1064.446,402.708,978.62,362.818,910.767C323.337,843.61,240.143,819.023,162.45,824.742C94.259,829.761,41.759,877.816,7.396,936.929C-27.187,996.421,-47.674,1068.313,-14.036,1128.344C20.197,1189.437,92.421,1213.296,162.45,1213.64" fill="rgba(76, 202, 240, 0.9)" class="triangle-float2"></path><path d="M94.849,1099.39C148.188,1099.31,202.269,1082.419,230.587,1037.218C260.56,989.375,263.9,926.32,232.79,879.209C204.066,835.711,146.968,830.809,94.849,831.667C44.743,832.492,-7.764,841.85,-35.44,883.627C-65.85,929.53,-70.056,990.489,-41.593,1037.624C-13.934,1083.429,41.341,1099.47,94.849,1099.39" fill="rgba(76, 202, 240, 0.9)" class="triangle-float1"></path><path d="M1604.12 819.89 a55.77 55.77 0 1 0 111.54 0 a55.77 55.77 0 1 0 -111.54 0z" fill="rgba(76, 202, 240, 0.9)" class="triangle-float2"></path><path d="M1619.48 804.51 a25.03 25.03 0 1 0 50.06 0 a25.03 25.03 0 1 0 -50.06 0z" fill="rgba(76, 202, 240, 0.9)" class="triangle-float1"></path><path d="M1918.446,1284.862C1992.988,1282.793,2062.602,1247.765,2101.145,1183.927C2141.051,1117.831,2144.646,1036.868,2109.758,967.992C2071.029,891.533,2004.047,827.526,1918.446,823.244C1825.997,818.62,1734.93,865.648,1690.841,947.038C1648.477,1025.244,1667.593,1120.82,1717.29,1194.583C1761.304,1259.911,1839.704,1287.048,1918.446,1284.862" fill="rgba(76, 202, 240, 0.9)" class="triangle-float2"></path></g><defs><mask id="SvgjsMask1000"><rect width="1920" height="1080" fill="#ffffff"></rect></mask><style>
                @keyframes float1 {
                    0%{transform: translate(0, 0)}
                    50%{transform: translate(-10px, 0)}
                    100%{transform: translate(0, 0)}
                }

                .triangle-float1 {
                    animation: float1 5s infinite;
                }

                @keyframes float2 {
                    0%{transform: translate(0, 0)}
                    50%{transform: translate(-5px, -5px)}
                    100%{transform: translate(0, 0)}
                }

                .triangle-float2 {
                    animation: float2 4s infinite;
                }

                @keyframes float3 {
                    0%{transform: translate(0, 0)}
                    50%{transform: translate(0, -10px)}
                    100%{transform: translate(0, 0)}
                }

                .triangle-float3 {
                    animation: float3 6s infinite;
                }
            </style></defs></svg>